<svg width="31" height="31" viewBox="0 0 31 31" fill="none" xmlns="http://www.w3.org/2000/svg">
<path d="M5.12132 0.993949C3.94975 -0.177624 2.05025 -0.177624 0.87868 0.993949C-0.292893 2.16552 -0.292893 4.06502 0.87868 5.23659L5.12132 0.993949ZM24.9203 29.2782C26.0919 30.4498 27.9914 30.4498 29.163 29.2782C30.3345 28.1066 30.3345 26.2072 29.163 25.0356L24.9203 29.2782ZM29.3093 5.12132C30.4809 3.94975 30.4809 2.05025 29.3093 0.87868C28.1378 -0.292893 26.2383 -0.292893 25.0667 0.87868L29.3093 5.12132ZM1.02507 24.9203C-0.1465 26.0919 -0.1465 27.9914 1.02507 29.163C2.19665 30.3345 4.09614 30.3345 5.26771 29.163L1.02507 24.9203ZM0.87868 5.23659L24.9203 29.2782L29.163 25.0356L5.12132 0.993949L0.87868 5.23659ZM25.0667 0.87868L1.02507 24.9203L5.26771 29.163L29.3093 5.12132L25.0667 0.87868Z" fill="white"/>
</svg>
